<svg width="202" height="33" viewBox="0 0 202 33" fill="none" xmlns="http://www.w3.org/2000/svg">
<g clip-path="url(#clip0_137_3002)">
<path d="M14.8933 7.16667L21.3333 13.6067V25.8333H2.66667V7.16667H14.8933ZM14.8933 4.5H2.66667C1.2 4.5 0 5.7 0 7.16667V25.8333C0 27.3 1.2 28.5 2.66667 28.5H21.3333C22.8 28.5 24 27.3 24 25.8333V13.6067C24 12.9 23.72 12.22 23.2133 11.7267L16.7733 5.28667C16.28 4.78 15.6 4.5 14.8933 4.5ZM5.33333 20.5H18.6667V23.1667H5.33333V20.5ZM5.33333 15.1667H18.6667V17.8333H5.33333V15.1667ZM5.33333 9.83333H14.6667V12.5H5.33333V9.83333Z" fill="black"/>
<path d="M14.8933 7.16667L21.3333 13.6067V25.8333H2.66667V7.16667H14.8933ZM14.8933 4.5H2.66667C1.2 4.5 0 5.7 0 7.16667V25.8333C0 27.3 1.2 28.5 2.66667 28.5H21.3333C22.8 28.5 24 27.3 24 25.8333V13.6067C24 12.9 23.72 12.22 23.2133 11.7267L16.7733 5.28667C16.28 4.78 15.6 4.5 14.8933 4.5ZM5.33333 20.5H18.6667V23.1667H5.33333V20.5ZM5.33333 15.1667H18.6667V17.8333H5.33333V15.1667ZM5.33333 9.83333H14.6667V12.5H5.33333V9.83333Z" fill="white"/>
</g>
<path d="M41.096 26.36C39.368 26.36 37.876 25.984 36.62 25.232C35.372 24.48 34.408 23.428 33.728 22.076C33.056 20.724 32.72 19.152 32.72 17.36C32.72 15.568 33.056 13.996 33.728 12.644C34.408 11.292 35.372 10.24 36.62 9.488C37.876 8.736 39.368 8.36 41.096 8.36C43.08 8.36 44.744 8.852 46.088 9.836C47.44 10.82 48.392 12.152 48.944 13.832L45.656 14.744C45.336 13.696 44.796 12.884 44.036 12.308C43.276 11.724 42.296 11.432 41.096 11.432C40 11.432 39.084 11.676 38.348 12.164C37.62 12.652 37.072 13.34 36.704 14.228C36.336 15.116 36.152 16.16 36.152 17.36C36.152 18.56 36.336 19.604 36.704 20.492C37.072 21.38 37.62 22.068 38.348 22.556C39.084 23.044 40 23.288 41.096 23.288C42.296 23.288 43.276 22.996 44.036 22.412C44.796 21.828 45.336 21.016 45.656 19.976L48.944 20.888C48.392 22.568 47.44 23.9 46.088 24.884C44.744 25.868 43.08 26.36 41.096 26.36ZM55.1863 26.36C54.2583 26.36 53.4703 26.184 52.8223 25.832C52.1823 25.472 51.6943 24.996 51.3583 24.404C51.0303 23.804 50.8663 23.144 50.8663 22.424C50.8663 21.824 50.9583 21.276 51.1423 20.78C51.3263 20.284 51.6223 19.848 52.0303 19.472C52.4463 19.088 53.0023 18.768 53.6983 18.512C54.1783 18.336 54.7503 18.18 55.4143 18.044C56.0783 17.908 56.8303 17.78 57.6703 17.66C58.5103 17.532 59.4343 17.392 60.4423 17.24L59.2663 17.888C59.2663 17.12 59.0823 16.556 58.7143 16.196C58.3463 15.836 57.7303 15.656 56.8663 15.656C56.3863 15.656 55.8863 15.772 55.3663 16.004C54.8463 16.236 54.4823 16.648 54.2743 17.24L51.3223 16.304C51.6503 15.232 52.2663 14.36 53.1703 13.688C54.0743 13.016 55.3063 12.68 56.8663 12.68C58.0103 12.68 59.0263 12.856 59.9143 13.208C60.8023 13.56 61.4743 14.168 61.9303 15.032C62.1863 15.512 62.3383 15.992 62.3863 16.472C62.4343 16.952 62.4583 17.488 62.4583 18.08V26H59.6023V23.336L60.0103 23.888C59.3783 24.76 58.6943 25.392 57.9583 25.784C57.2303 26.168 56.3063 26.36 55.1863 26.36ZM55.8823 23.792C56.4823 23.792 56.9863 23.688 57.3943 23.48C57.8103 23.264 58.1383 23.02 58.3783 22.748C58.6263 22.476 58.7943 22.248 58.8823 22.064C59.0503 21.712 59.1463 21.304 59.1703 20.84C59.2023 20.368 59.2183 19.976 59.2183 19.664L60.1783 19.904C59.2103 20.064 58.4263 20.2 57.8263 20.312C57.2263 20.416 56.7423 20.512 56.3743 20.6C56.0063 20.688 55.6823 20.784 55.4023 20.888C55.0823 21.016 54.8223 21.156 54.6223 21.308C54.4303 21.452 54.2863 21.612 54.1903 21.788C54.1023 21.964 54.0583 22.16 54.0583 22.376C54.0583 22.672 54.1303 22.928 54.2743 23.144C54.4263 23.352 54.6383 23.512 54.9103 23.624C55.1823 23.736 55.5063 23.792 55.8823 23.792ZM73.3544 26C72.4584 26.168 71.5784 26.24 70.7144 26.216C69.8584 26.2 69.0904 26.052 68.4104 25.772C67.7384 25.484 67.2264 25.024 66.8744 24.392C66.5544 23.8 66.3864 23.2 66.3704 22.592C66.3544 21.976 66.3464 21.28 66.3464 20.504V9.44H69.6104V20.312C69.6104 20.816 69.6144 21.272 69.6224 21.68C69.6384 22.08 69.7224 22.4 69.8744 22.64C70.1624 23.096 70.6224 23.344 71.2544 23.384C71.8864 23.424 72.5864 23.392 73.3544 23.288V26ZM64.1384 15.56V13.04H73.3544V15.56H64.1384ZM79.8425 26.36C78.9145 26.36 78.1265 26.184 77.4785 25.832C76.8385 25.472 76.3505 24.996 76.0145 24.404C75.6865 23.804 75.5225 23.144 75.5225 22.424C75.5225 21.824 75.6145 21.276 75.7985 20.78C75.9825 20.284 76.2785 19.848 76.6865 19.472C77.1025 19.088 77.6585 18.768 78.3545 18.512C78.8345 18.336 79.4065 18.18 80.0705 18.044C80.7345 17.908 81.4865 17.78 82.3265 17.66C83.1665 17.532 84.0905 17.392 85.0985 17.24L83.9225 17.888C83.9225 17.12 83.7385 16.556 83.3705 16.196C83.0025 15.836 82.3865 15.656 81.5225 15.656C81.0425 15.656 80.5425 15.772 80.0225 16.004C79.5025 16.236 79.1385 16.648 78.9305 17.24L75.9785 16.304C76.3065 15.232 76.9225 14.36 77.8265 13.688C78.7305 13.016 79.9625 12.68 81.5225 12.68C82.6665 12.68 83.6825 12.856 84.5705 13.208C85.4585 13.56 86.1305 14.168 86.5865 15.032C86.8425 15.512 86.9945 15.992 87.0425 16.472C87.0905 16.952 87.1145 17.488 87.1145 18.08V26H84.2585V23.336L84.6665 23.888C84.0345 24.76 83.3505 25.392 82.6145 25.784C81.8865 26.168 80.9625 26.36 79.8425 26.36ZM80.5385 23.792C81.1385 23.792 81.6425 23.688 82.0505 23.48C82.4665 23.264 82.7945 23.02 83.0345 22.748C83.2825 22.476 83.4505 22.248 83.5385 22.064C83.7065 21.712 83.8025 21.304 83.8265 20.84C83.8585 20.368 83.8745 19.976 83.8745 19.664L84.8345 19.904C83.8665 20.064 83.0825 20.2 82.4825 20.312C81.8825 20.416 81.3985 20.512 81.0305 20.6C80.6625 20.688 80.3385 20.784 80.0585 20.888C79.7385 21.016 79.4785 21.156 79.2785 21.308C79.0865 21.452 78.9425 21.612 78.8465 21.788C78.7585 21.964 78.7145 22.16 78.7145 22.376C78.7145 22.672 78.7865 22.928 78.9305 23.144C79.0825 23.352 79.2945 23.512 79.5665 23.624C79.8385 23.736 80.1625 23.792 80.5385 23.792ZM98.0107 26C97.1147 26.168 96.2347 26.24 95.3707 26.216C94.5147 26.2 93.7467 26.052 93.0667 25.772C92.3947 25.484 91.8827 25.024 91.5307 24.392C91.2107 23.8 91.0427 23.2 91.0267 22.592C91.0107 21.976 91.0027 21.28 91.0027 20.504V9.44H94.2667V20.312C94.2667 20.816 94.2707 21.272 94.2787 21.68C94.2947 22.08 94.3787 22.4 94.5307 22.64C94.8187 23.096 95.2787 23.344 95.9107 23.384C96.5427 23.424 97.2427 23.392 98.0107 23.288V26ZM88.7947 15.56V13.04H98.0107V15.56H88.7947ZM104.499 26.36C103.571 26.36 102.783 26.184 102.135 25.832C101.495 25.472 101.007 24.996 100.671 24.404C100.343 23.804 100.179 23.144 100.179 22.424C100.179 21.824 100.271 21.276 100.455 20.78C100.639 20.284 100.935 19.848 101.343 19.472C101.759 19.088 102.315 18.768 103.011 18.512C103.491 18.336 104.063 18.18 104.727 18.044C105.391 17.908 106.143 17.78 106.983 17.66C107.823 17.532 108.747 17.392 109.755 17.24L108.579 17.888C108.579 17.12 108.395 16.556 108.027 16.196C107.659 15.836 107.043 15.656 106.179 15.656C105.699 15.656 105.199 15.772 104.679 16.004C104.159 16.236 103.795 16.648 103.587 17.24L100.635 16.304C100.963 15.232 101.579 14.36 102.483 13.688C103.387 13.016 104.619 12.68 106.179 12.68C107.323 12.68 108.339 12.856 109.227 13.208C110.115 13.56 110.787 14.168 111.243 15.032C111.499 15.512 111.651 15.992 111.699 16.472C111.747 16.952 111.771 17.488 111.771 18.08V26H108.915V23.336L109.323 23.888C108.691 24.76 108.007 25.392 107.271 25.784C106.543 26.168 105.619 26.36 104.499 26.36ZM105.195 23.792C105.795 23.792 106.299 23.688 106.707 23.48C107.123 23.264 107.451 23.02 107.691 22.748C107.939 22.476 108.107 22.248 108.195 22.064C108.363 21.712 108.459 21.304 108.483 20.84C108.515 20.368 108.531 19.976 108.531 19.664L109.491 19.904C108.523 20.064 107.739 20.2 107.139 20.312C106.539 20.416 106.055 20.512 105.687 20.6C105.319 20.688 104.995 20.784 104.715 20.888C104.395 21.016 104.135 21.156 103.935 21.308C103.743 21.452 103.599 21.612 103.503 21.788C103.415 21.964 103.371 22.16 103.371 22.376C103.371 22.672 103.443 22.928 103.587 23.144C103.739 23.352 103.951 23.512 104.223 23.624C104.495 23.736 104.819 23.792 105.195 23.792ZM123.723 26V19.88C123.723 19.584 123.707 19.208 123.675 18.752C123.643 18.288 123.543 17.824 123.375 17.36C123.207 16.896 122.931 16.508 122.547 16.196C122.171 15.884 121.635 15.728 120.939 15.728C120.659 15.728 120.359 15.772 120.039 15.86C119.719 15.948 119.419 16.12 119.139 16.376C118.859 16.624 118.627 16.992 118.443 17.48C118.267 17.968 118.179 18.616 118.179 19.424L116.307 18.536C116.307 17.512 116.515 16.552 116.931 15.656C117.347 14.76 117.971 14.036 118.803 13.484C119.643 12.932 120.699 12.656 121.971 12.656C122.987 12.656 123.815 12.828 124.455 13.172C125.095 13.516 125.591 13.952 125.943 14.48C126.303 15.008 126.559 15.56 126.711 16.136C126.863 16.704 126.955 17.224 126.987 17.696C127.019 18.168 127.035 18.512 127.035 18.728V26H123.723ZM114.867 26V13.04H117.771V17.336H118.179V26H114.867ZM130.149 26V8.72H137.061C138.293 8.72 139.289 8.968 140.049 9.464C140.809 9.952 141.365 10.568 141.717 11.312C142.069 12.056 142.245 12.808 142.245 13.568C142.245 14.536 142.025 15.34 141.585 15.98C141.153 16.62 140.557 17.048 139.797 17.264V16.664C140.877 16.888 141.685 17.388 142.221 18.164C142.765 18.94 143.037 19.808 143.037 20.768C143.037 21.8 142.845 22.708 142.461 23.492C142.085 24.276 141.509 24.892 140.733 25.34C139.957 25.78 138.981 26 137.805 26H130.149ZM133.461 22.928H137.469C137.909 22.928 138.301 22.836 138.645 22.652C138.989 22.46 139.257 22.196 139.449 21.86C139.649 21.516 139.749 21.112 139.749 20.648C139.749 20.24 139.665 19.876 139.497 19.556C139.329 19.236 139.073 18.984 138.729 18.8C138.393 18.608 137.973 18.512 137.469 18.512H133.461V22.928ZM133.461 15.464H137.013C137.381 15.464 137.709 15.4 137.997 15.272C138.285 15.144 138.513 14.948 138.681 14.684C138.849 14.412 138.933 14.064 138.933 13.64C138.933 13.112 138.769 12.668 138.441 12.308C138.113 11.948 137.637 11.768 137.013 11.768H133.461V15.464ZM151.262 26.36C149.958 26.36 148.814 26.068 147.83 25.484C146.846 24.9 146.078 24.096 145.526 23.072C144.982 22.04 144.71 20.856 144.71 19.52C144.71 18.168 144.99 16.98 145.55 15.956C146.11 14.924 146.882 14.12 147.866 13.544C148.85 12.968 149.982 12.68 151.262 12.68C152.566 12.68 153.71 12.972 154.694 13.556C155.686 14.14 156.458 14.948 157.01 15.98C157.562 17.004 157.838 18.184 157.838 19.52C157.838 20.864 157.558 22.052 156.998 23.084C156.446 24.108 155.674 24.912 154.682 25.496C153.698 26.072 152.558 26.36 151.262 26.36ZM151.262 23.312C152.31 23.312 153.09 22.96 153.602 22.256C154.122 21.544 154.382 20.632 154.382 19.52C154.382 18.368 154.118 17.448 153.59 16.76C153.07 16.072 152.294 15.728 151.262 15.728C150.55 15.728 149.966 15.888 149.51 16.208C149.054 16.528 148.714 16.972 148.49 17.54C148.274 18.108 148.166 18.768 148.166 19.52C148.166 20.68 148.426 21.604 148.946 22.292C149.474 22.972 150.246 23.312 151.262 23.312ZM166.189 26.36C164.845 26.36 163.693 26.06 162.733 25.46C161.773 24.86 161.037 24.044 160.525 23.012C160.013 21.98 159.757 20.816 159.757 19.52C159.757 18.208 160.021 17.036 160.549 16.004C161.085 14.972 161.837 14.16 162.805 13.568C163.773 12.976 164.917 12.68 166.237 12.68C167.765 12.68 169.045 13.068 170.077 13.844C171.117 14.612 171.781 15.664 172.069 17L168.805 17.864C168.613 17.192 168.277 16.668 167.797 16.292C167.325 15.916 166.789 15.728 166.189 15.728C165.501 15.728 164.937 15.896 164.497 16.232C164.057 16.56 163.733 17.012 163.525 17.588C163.317 18.156 163.213 18.8 163.213 19.52C163.213 20.648 163.461 21.564 163.957 22.268C164.461 22.964 165.205 23.312 166.189 23.312C166.925 23.312 167.485 23.144 167.869 22.808C168.253 22.472 168.541 21.992 168.733 21.368L172.069 22.064C171.701 23.44 171.005 24.5 169.981 25.244C168.957 25.988 167.693 26.36 166.189 26.36ZM177.835 26.36C176.907 26.36 176.119 26.184 175.471 25.832C174.831 25.472 174.343 24.996 174.007 24.404C173.679 23.804 173.515 23.144 173.515 22.424C173.515 21.824 173.607 21.276 173.791 20.78C173.975 20.284 174.271 19.848 174.679 19.472C175.095 19.088 175.651 18.768 176.347 18.512C176.827 18.336 177.399 18.18 178.063 18.044C178.727 17.908 179.479 17.78 180.319 17.66C181.159 17.532 182.083 17.392 183.091 17.24L181.915 17.888C181.915 17.12 181.731 16.556 181.363 16.196C180.995 15.836 180.379 15.656 179.515 15.656C179.035 15.656 178.535 15.772 178.015 16.004C177.495 16.236 177.131 16.648 176.923 17.24L173.971 16.304C174.299 15.232 174.915 14.36 175.819 13.688C176.723 13.016 177.955 12.68 179.515 12.68C180.659 12.68 181.675 12.856 182.563 13.208C183.451 13.56 184.123 14.168 184.579 15.032C184.835 15.512 184.987 15.992 185.035 16.472C185.083 16.952 185.107 17.488 185.107 18.08V26H182.251V23.336L182.659 23.888C182.027 24.76 181.343 25.392 180.607 25.784C179.879 26.168 178.955 26.36 177.835 26.36ZM178.531 23.792C179.131 23.792 179.635 23.688 180.043 23.48C180.459 23.264 180.787 23.02 181.027 22.748C181.275 22.476 181.443 22.248 181.531 22.064C181.699 21.712 181.795 21.304 181.819 20.84C181.851 20.368 181.867 19.976 181.867 19.664L182.827 19.904C181.859 20.064 181.075 20.2 180.475 20.312C179.875 20.416 179.391 20.512 179.023 20.6C178.655 20.688 178.331 20.784 178.051 20.888C177.731 21.016 177.471 21.156 177.271 21.308C177.079 21.452 176.935 21.612 176.839 21.788C176.751 21.964 176.707 22.16 176.707 22.376C176.707 22.672 176.779 22.928 176.923 23.144C177.075 23.352 177.287 23.512 177.559 23.624C177.831 23.736 178.155 23.792 178.531 23.792ZM197.059 26V19.88C197.059 19.584 197.043 19.208 197.011 18.752C196.979 18.288 196.879 17.824 196.711 17.36C196.543 16.896 196.267 16.508 195.883 16.196C195.507 15.884 194.971 15.728 194.275 15.728C193.995 15.728 193.695 15.772 193.375 15.86C193.055 15.948 192.755 16.12 192.475 16.376C192.195 16.624 191.963 16.992 191.779 17.48C191.603 17.968 191.515 18.616 191.515 19.424L189.643 18.536C189.643 17.512 189.851 16.552 190.267 15.656C190.683 14.76 191.307 14.036 192.139 13.484C192.979 12.932 194.035 12.656 195.307 12.656C196.323 12.656 197.151 12.828 197.791 13.172C198.431 13.516 198.927 13.952 199.279 14.48C199.639 15.008 199.895 15.56 200.047 16.136C200.199 16.704 200.291 17.224 200.323 17.696C200.355 18.168 200.371 18.512 200.371 18.728V26H197.059ZM188.203 26V8.72H191.107V17.6H191.515V26H188.203Z" fill="white"/>
<defs>
<clipPath id="clip0_137_3002">
<rect width="24" height="24" fill="white" transform="translate(0 4.5)"/>
</clipPath>
</defs>
</svg>
