<svg width="40" height="40" viewBox="0 0 40 40" fill="none" xmlns="http://www.w3.org/2000/svg">
<rect width="40" height="40" rx="20" fill="#F7F8F9"/>
<path d="M20 8C13.376 8 8 13.376 8 20C8 26.624 13.376 32 20 32C26.624 32 32 26.624 32 20C32 13.376 26.624 8 20 8ZM20 29.6C14.708 29.6 10.4 25.292 10.4 20C10.4 14.708 14.708 10.4 20 10.4C25.292 10.4 29.6 14.708 29.6 20C29.6 25.292 25.292 29.6 20 29.6ZM21.068 18.92C18.932 18.212 17.9 17.768 17.9 16.64C17.9 15.416 19.232 14.972 20.072 14.972C21.644 14.972 22.22 16.16 22.352 16.58L24.248 15.776C24.068 15.248 23.264 13.484 21.056 13.1V11.6H18.956V13.112C15.836 13.784 15.812 16.532 15.812 16.664C15.812 19.388 18.512 20.156 19.832 20.636C21.728 21.308 22.568 21.92 22.568 23.072C22.568 24.428 21.308 25.004 20.192 25.004C18.008 25.004 17.384 22.76 17.312 22.496L15.32 23.3C16.076 25.928 18.056 26.636 18.944 26.852V28.4H21.044V26.912C21.668 26.804 24.668 26.204 24.668 23.048C24.68 21.38 23.948 19.916 21.068 18.92Z" fill="#219653"/>
</svg>
