<svg width="40" height="40" viewBox="0 0 40 40" fill="none" xmlns="http://www.w3.org/2000/svg">
<rect width="40" height="40" rx="20" fill="#F7F8F9"/>
<g clip-path="url(#clip0_12_501)">
<path d="M27.5499 8H12.8499C11.5024 8 10.3999 9.1025 10.3999 10.45V30.05C10.3999 31.3975 11.5024 32.5 12.8499 32.5H27.5499C28.8974 32.5 29.9999 31.3975 29.9999 30.05V10.45C29.9999 9.1025 28.8974 8 27.5499 8ZM16.5249 10.45H18.9749V16.575L17.7499 15.6562L16.5249 16.575V10.45ZM27.5499 30.05H12.8499V10.45H14.0749V21.475L17.7499 18.7188L21.4249 21.475V10.45H27.5499V30.05Z" fill="#219653"/>
</g>
<defs>
<clipPath id="clip0_12_501">
<rect width="24" height="24" fill="white" transform="translate(8 8)"/>
</clipPath>
</defs>
</svg>
