<svg width="92" height="92" viewBox="0 0 92 92" fill="none" xmlns="http://www.w3.org/2000/svg">
<rect width="92" height="92" rx="46" fill="#27AE60"/>
<g clip-path="url(#clip0_243_1483)">
<path d="M52.1661 27.2222L64.7778 39.8339V63.7778H28.2222V27.2222H52.1661ZM52.1661 22H28.2222C25.35 22 23 24.35 23 27.2222V63.7778C23 66.65 25.35 69 28.2222 69H64.7778C67.65 69 70 66.65 70 63.7778V39.8339C70 38.45 69.4517 37.1183 68.4594 36.1522L55.8478 23.5406C54.8817 22.5483 53.55 22 52.1661 22ZM33.4444 53.3333H59.5556V58.5556H33.4444V53.3333ZM33.4444 42.8889H59.5556V48.1111H33.4444V42.8889ZM33.4444 32.4444H51.7222V37.6667H33.4444V32.4444Z" fill="black"/>
<path d="M52.1661 27.2222L64.7778 39.8339V63.7778H28.2222V27.2222H52.1661ZM52.1661 22H28.2222C25.35 22 23 24.35 23 27.2222V63.7778C23 66.65 25.35 69 28.2222 69H64.7778C67.65 69 70 66.65 70 63.7778V39.8339C70 38.45 69.4517 37.1183 68.4594 36.1522L55.8478 23.5406C54.8817 22.5483 53.55 22 52.1661 22ZM33.4444 53.3333H59.5556V58.5556H33.4444V53.3333ZM33.4444 42.8889H59.5556V48.1111H33.4444V42.8889ZM33.4444 32.4444H51.7222V37.6667H33.4444V32.4444Z" fill="white"/>
</g>
<defs>
<clipPath id="clip0_243_1483">
<rect width="47" height="47" fill="white" transform="translate(23 22)"/>
</clipPath>
</defs>
</svg>
